<svg width="141" height="38" viewBox="0 0 141 38" fill="none" xmlns="http://www.w3.org/2000/svg">
<g clip-path="url(#clip0)">
<path d="M26.1476 25.8239L15.6394 36.4007L5.0509 25.8239H26.1476Z" fill="white"/>
<path d="M15.6393 30.4538C7.57767 30.4538 1 23.7485 1 15.5265C1 7.30455 7.57767 0.599243 15.6393 0.599243C20.2517 0.599243 24.463 2.75452 27.2706 6.46638C28.4337 8.02297 28.1128 10.2182 26.5486 11.3756C24.9844 12.5331 22.7785 12.2138 21.6154 10.6572C20.1715 8.70148 18.0057 7.62385 15.6393 7.62385C11.4681 7.62385 8.05896 11.1761 8.05896 15.5265C8.05896 19.877 11.428 23.4292 15.6393 23.4292C18.0057 23.4292 20.2116 22.3117 21.6555 20.316C22.8186 18.7594 25.0245 18.4002 26.5887 19.5577C28.1529 20.7152 28.5139 22.9103 27.3508 24.4669C24.5432 28.2586 20.2517 30.4538 15.6393 30.4538Z" fill="white"/>
<path d="M26.5888 19.5178C25.0647 18.4002 22.9791 18.6796 21.8159 20.1165C21.094 21.1542 20.1314 21.9923 19.0084 22.591C19.0084 22.591 18.9683 22.591 18.9683 22.6309C18.7677 22.7507 18.5271 22.8305 18.3266 22.9103C18.2463 22.9103 18.1661 22.9502 18.126 22.9502C18.0057 22.9902 17.8854 23.0301 17.765 23.07C17.6046 23.1099 17.4843 23.1498 17.3239 23.1897C17.2436 23.2296 17.1233 23.2296 17.0431 23.2695C16.8827 23.3095 16.6821 23.3494 16.5217 23.3494C16.4415 23.3494 16.4014 23.3494 16.3212 23.3494C16.1206 23.3494 15.9201 23.3893 15.7196 23.3893H15.6794H15.6393C15.4388 23.3893 15.2383 23.3893 15.0377 23.3494C14.9575 23.3494 14.9174 23.3494 14.8372 23.3494C14.6366 23.3095 14.4762 23.3095 14.3158 23.2695C14.2356 23.2695 14.1152 23.2296 14.035 23.1897C13.8746 23.1498 13.7142 23.1099 13.5938 23.07C13.4735 23.0301 13.3532 22.9902 13.2329 22.9502C13.1527 22.9103 13.1126 22.9103 13.0323 22.8704C12.8318 22.7906 12.5912 22.6709 12.3906 22.591C12.3906 22.591 12.3505 22.591 12.3505 22.5511C11.2275 21.9923 10.2649 21.1143 9.54296 20.0765C8.33973 18.6796 6.25413 18.4002 4.77014 19.4779C3.20594 20.6353 2.84497 22.8305 4.0081 24.3871C5.0509 25.784 6.29424 26.9814 7.6579 27.8994C7.73812 27.9393 7.77822 27.9792 7.85844 28.0191C8.01887 28.099 8.13919 28.2187 8.29962 28.2985C8.37984 28.3783 8.50016 28.4183 8.62049 28.4582C8.74081 28.538 8.86113 28.5779 8.98146 28.6577C9.10178 28.7376 9.2221 28.7775 9.34243 28.8573C9.46275 28.8972 9.58307 28.977 9.7034 29.0169C9.82372 29.0569 9.94404 29.1367 10.0644 29.1766C10.305 29.2564 10.5055 29.3762 10.7462 29.456C10.8264 29.4959 10.9467 29.5358 11.027 29.5358C11.1874 29.5757 11.3478 29.6555 11.5082 29.6955C11.5885 29.7354 11.7088 29.7354 11.789 29.7753C11.9494 29.8152 12.15 29.8551 12.3104 29.895C12.3906 29.9349 12.4708 29.9349 12.551 29.9349C12.7516 29.9748 12.912 30.0148 13.1126 30.0547C13.1928 30.0547 13.273 30.0946 13.3131 30.0946C13.5136 30.1345 13.7543 30.1744 13.9548 30.1744C13.9949 30.1744 14.0751 30.1744 14.1152 30.2143C14.3559 30.2542 14.5965 30.2542 14.8773 30.2941C14.9174 30.2941 14.9174 30.2941 14.9575 30.2941C15.2383 30.2941 15.519 30.3341 15.7998 30.3341C16.0805 30.3341 16.3613 30.3341 16.642 30.2941C16.6821 30.2941 16.6821 30.2941 16.7222 30.2941C16.9629 30.2941 17.2035 30.2542 17.4843 30.2143C17.5244 30.2143 17.6046 30.2143 17.6447 30.1744C17.8453 30.1345 18.0859 30.1345 18.2864 30.0946C18.3667 30.0946 18.4469 30.0547 18.487 30.0547C18.6875 30.0148 18.848 29.9748 19.0485 29.9349C19.1287 29.9349 19.2089 29.895 19.2891 29.895C19.4496 29.8551 19.6501 29.8152 19.8105 29.7753C19.8908 29.7354 20.0111 29.7354 20.0913 29.6955C20.2517 29.6555 20.4122 29.5757 20.5726 29.5358C20.6528 29.4959 20.7731 29.456 20.8533 29.456C21.094 29.3762 21.2945 29.2963 21.5352 29.1766C21.6555 29.1367 21.7758 29.0569 21.8961 29.0169C22.0165 28.977 22.1368 28.8972 22.2571 28.8573C22.3774 28.8174 22.4978 28.7376 22.6181 28.6577C22.7384 28.5779 22.8587 28.538 22.9791 28.4582C23.0994 28.4183 23.1796 28.3384 23.2999 28.2985C23.4603 28.2187 23.5807 28.1389 23.7411 28.0191C23.8213 27.9792 23.8614 27.9393 23.9416 27.8994C25.3053 26.9814 26.5486 25.784 27.5914 24.3871C28.5139 22.8704 28.153 20.6752 26.5888 19.5178Z" fill="white"/>
<path d="M15.8399 19.7573C18.0772 19.7573 19.8908 17.9525 19.8908 15.7261C19.8908 13.4998 18.0772 11.6949 15.8399 11.6949C13.6027 11.6949 11.7891 13.4998 11.7891 15.7261C11.7891 17.9525 13.6027 19.7573 15.8399 19.7573Z" fill="white"/>
<path d="M41.5088 12.3735L34.891 29.5758H31.2011L33.407 24.3073L28.5941 12.3735H32.5648L35.2921 20.8748L37.7788 12.3735H41.5088V12.3735Z" fill="white"/>
<path d="M54.7043 16.1651V20.1164C54.7043 21.7529 54.223 22.9103 53.2203 23.5888C52.2177 24.2673 50.6535 24.6266 48.4475 24.6266C46.1213 24.6266 44.517 24.2673 43.6346 23.5489C42.7522 22.8305 42.311 21.673 42.311 20.1164V6.98523H45.9608V13.5309C46.1614 12.9721 46.5625 12.6129 47.1641 12.4133C47.7657 12.2138 48.6481 12.094 49.8914 12.094C50.9342 12.094 51.7765 12.1739 52.4182 12.3335C53.0599 12.4932 53.5412 12.7725 53.9022 13.1318C54.223 13.491 54.4637 13.93 54.5439 14.369C54.6642 14.848 54.7043 15.4467 54.7043 16.1651ZM51.0545 20.5954V16.1651C51.0545 15.3669 50.8941 14.8879 50.6133 14.6883C50.3326 14.4888 49.6106 14.369 48.4475 14.369C47.4047 14.369 46.7229 14.4888 46.4421 14.7682C46.1213 15.0476 45.9608 15.4866 45.9608 16.1651V20.5954C45.9608 21.3138 46.1213 21.7928 46.4421 22.0322C46.763 22.2717 47.4448 22.3915 48.4876 22.3915C49.5705 22.3915 50.2524 22.2717 50.5732 22.0322C50.8941 21.7928 51.0545 21.3138 51.0545 20.5954Z" fill="white"/>
<path d="M67.6992 19.3581H59.8782V20.4358C59.8782 21.1143 60.1188 21.5932 60.6001 21.9125C61.0814 22.2318 62.0039 22.3915 63.3275 22.3915C64.5307 22.3915 65.8944 22.2318 67.3783 21.8726V24.1875C65.8543 24.5068 64.2499 24.6665 62.6456 24.6665C58.3541 24.6665 56.2284 23.3494 56.2284 20.7551V16.4046C56.2284 14.848 56.7097 13.7704 57.7124 13.0919C58.7151 12.4134 60.1991 12.0941 62.1643 12.0941C64.0093 12.0941 65.4131 12.4134 66.3355 13.052C67.258 13.6906 67.6992 14.8081 67.6992 16.4046V19.3581ZM64.2499 17.2827V15.5265C64.2499 15.1274 64.0895 14.848 63.7686 14.6485C63.4478 14.4489 62.9264 14.3292 62.1242 14.3292C61.2419 14.3292 60.6402 14.4489 60.3194 14.6485C59.9985 14.848 59.8381 15.1673 59.8381 15.5265V17.2827H64.2499Z" fill="white"/>
<path d="M77.4453 15.1274H76.202C75.1993 15.1274 74.4372 15.2871 73.9559 15.6064C73.4345 15.9257 73.1939 16.4445 73.1939 17.2029V24.427H69.5441V12.3734H73.0334V14.4888C73.0334 13.8901 73.3944 13.3313 74.0762 12.8524C74.7581 12.3734 75.4399 12.134 76.202 12.134H77.4854V15.1274H77.4453Z" fill="white"/>
<path d="M95.7746 18.7195V19.7971C95.7746 20.755 95.6141 21.5533 95.2532 22.2318C94.8922 22.8704 94.3708 23.3893 93.689 23.7086C93.0071 24.0678 92.2451 24.3072 91.4429 24.427C90.6408 24.5866 89.6782 24.6265 88.5552 24.6265C86.991 24.6265 85.1059 24.4669 82.8198 24.1875V21.234C85.5872 21.673 87.5124 21.8726 88.5953 21.8726C90.7611 21.8726 91.844 21.3138 91.844 20.1963V19.1585C91.844 18.6796 91.6836 18.2805 91.4028 17.9612C91.1221 17.6419 90.5606 17.4822 89.7183 17.4822H87.8332C84.2636 17.4822 82.4989 16.0853 82.4989 13.2515V12.0541C82.4989 10.6572 83.1005 9.61944 84.2636 8.94093C85.4268 8.26242 87.3118 7.94312 89.8787 7.94312C91.1221 7.94312 92.8066 8.06285 94.9323 8.26242V11.1361C92.4055 10.8567 90.6809 10.6971 89.7584 10.6971C88.475 10.6971 87.5926 10.8168 87.1113 11.0164C86.63 11.2159 86.3894 11.6151 86.3894 12.094V13.2515C86.3894 14.0896 87.1113 14.5287 88.5552 14.5287H90.5205C92.4055 14.5287 93.7692 14.8879 94.5713 15.5664C95.3334 16.3647 95.7746 17.3625 95.7746 18.7195Z" fill="white"/>
<path d="M108.449 19.3581H100.628V20.4358C100.628 21.1143 100.868 21.5932 101.35 21.9125C101.831 22.2318 102.753 22.3915 104.077 22.3915C105.28 22.3915 106.644 22.2318 108.128 21.8726V24.1875C106.604 24.5068 104.999 24.6665 103.395 24.6665C99.1036 24.6665 96.9779 23.3494 96.9779 20.7551V16.4046C96.9779 14.848 97.4592 13.7704 98.4619 13.0919C99.4646 12.4134 100.949 12.0941 102.914 12.0941C104.759 12.0941 106.163 12.4134 107.085 13.052C108.008 13.6906 108.449 14.8081 108.449 16.4046V19.3581ZM104.999 17.2827V15.5265C104.999 15.1274 104.839 14.848 104.518 14.6485C104.197 14.4489 103.676 14.3292 102.874 14.3292C101.991 14.3292 101.39 14.4489 101.069 14.6485C100.748 14.848 100.588 15.1673 100.588 15.5265V17.2827H104.999Z" fill="white"/>
<path d="M121.404 19.3581H113.583V20.4358C113.583 21.1143 113.823 21.5932 114.304 21.9125C114.786 22.2318 115.708 22.3915 117.032 22.3915C118.235 22.3915 119.599 22.2318 121.083 21.8726V24.1875C119.559 24.5068 117.954 24.6665 116.35 24.6665C112.058 24.6665 109.933 23.3494 109.933 20.7551V16.4046C109.933 14.848 110.414 13.7704 111.417 13.0919C112.419 12.4134 113.903 12.0941 115.869 12.0941C117.714 12.0941 119.117 12.4134 120.04 13.052C120.962 13.6906 121.404 14.8081 121.404 16.4046V19.3581ZM117.954 17.2827V15.5265C117.954 15.1274 117.794 14.848 117.473 14.6485C117.152 14.4489 116.631 14.3292 115.829 14.3292C114.946 14.3292 114.345 14.4489 114.024 14.6485C113.703 14.848 113.542 15.1673 113.542 15.5265V17.2827H117.954Z" fill="white"/>
<path d="M126.377 24.3871H122.727V6.98523H126.377V24.3871ZM135 24.3871H130.869L126.497 17.6419L130.468 12.3734H134.639L130.428 17.602L135 24.3871Z" fill="white"/>
</g>
<defs>
<clipPath id="clip0">
<rect width="134" height="35.8015" fill="white" transform="translate(1 0.599243)"/>
</clipPath>
</defs>
</svg>
