<svg version="1.2" xmlns="http://www.w3.org/2000/svg" xmlns:xlink="http://www.w3.org/1999/xlink" overflow="visible" preserveAspectRatio="none" viewBox="0 0 24 24" width="21" height="21"><g><path xmlns:default="http://www.w3.org/2000/svg" id="building" d="M5.34,2.67c-0.37,0.01-0.66,0.3-0.67,0.67v17.32c0.01,0.37,0.3,0.66,0.67,0.67h13.32  c0.37-0.01,0.66-0.3,0.67-0.67V3.34c-0.01-0.37-0.3-0.66-0.67-0.67C18.66,2.67,5.34,2.67,5.34,2.67z M10,5.67  c-0.01-0.18,0.13-0.32,0.31-0.33c0.01,0,0.01,0,0.02,0H11c0.18-0.01,0.32,0.13,0.33,0.31c0,0.01,0,0.01,0,0.02v0.67  c0.01,0.18-0.13,0.32-0.31,0.33c-0.01,0-0.01,0-0.02,0h-0.67C10.15,6.68,10.01,6.54,10,6.36c0-0.01,0-0.01,0-0.02V5.67L10,5.67z   M10,8.34C9.99,8.16,10.12,8.01,10.3,8c0.01,0,0.02,0,0.03,0H11c0.18-0.01,0.32,0.13,0.33,0.31c0,0.01,0,0.01,0,0.02V9  c0.01,0.18-0.13,0.32-0.31,0.33c-0.01,0-0.01,0-0.02,0h-0.67C10.15,9.34,10.01,9.2,10,9.02c0-0.01,0-0.01,0-0.02V8.34L10,8.34z   M10,11c-0.01-0.18,0.13-0.32,0.31-0.33c0.01,0,0.01,0,0.02,0H11c0.18-0.01,0.32,0.13,0.33,0.31c0,0.01,0,0.01,0,0.02v0.67  c0.01,0.18-0.13,0.32-0.31,0.33c-0.01,0-0.01,0-0.02,0h-0.67c-0.18,0.01-0.32-0.13-0.33-0.31c0-0.01,0-0.01,0-0.02V11L10,11z   M10,13.67c-0.01-0.18,0.13-0.32,0.31-0.33c0.01,0,0.01,0,0.02,0H11c0.18-0.01,0.32,0.13,0.33,0.31c0,0.01,0,0.01,0,0.02v0.67  c0.01,0.18-0.13,0.32-0.31,0.33c-0.01,0-0.01,0-0.02,0h-0.67c-0.18,0.01-0.32-0.13-0.33-0.31c0-0.01,0-0.02,0-0.03V13.67L10,13.67z   M8.57,17.24c-0.06,0.06-0.15,0.09-0.24,0.09H7.67c-0.18,0.01-0.32-0.13-0.33-0.31c0-0.01,0-0.01,0-0.02v-0.67  C7.33,16.15,7.47,16.01,7.65,16c0.01,0,0.01,0,0.02,0h0.67c0.18-0.01,0.32,0.13,0.33,0.31c0,0.01,0,0.01,0,0.02V17  C8.67,17.09,8.64,17.18,8.57,17.24z M8.66,14.34c0.01,0.18-0.13,0.32-0.31,0.33c-0.01,0-0.01,0-0.02,0H7.67  c-0.18,0.01-0.32-0.13-0.33-0.31c0-0.01,0-0.01,0-0.02v-0.67c-0.01-0.18,0.13-0.32,0.31-0.33c0.01,0,0.01,0,0.02,0h0.67  c0.18-0.01,0.32,0.13,0.33,0.31c0,0.01,0,0.01,0,0.02v0.67l0,0H8.66z M8.57,11.91C8.51,11.97,8.42,12,8.33,12H7.67  c-0.18,0.01-0.32-0.13-0.33-0.31c0-0.01,0-0.01,0-0.02V11c-0.01-0.18,0.13-0.32,0.31-0.33c0.01,0,0.01,0,0.02,0h0.67  c0.18-0.01,0.32,0.13,0.33,0.31c0,0.01,0,0.01,0,0.02v0.67C8.67,11.76,8.64,11.85,8.57,11.91z M8.57,9.24  C8.51,9.3,8.42,9.33,8.33,9.33H7.67C7.49,9.34,7.35,9.2,7.34,9.02c0-0.01,0-0.01,0-0.02V8.34C7.33,8.16,7.46,8.01,7.64,8  c0.01,0,0.02,0,0.03,0h0.67c0.18-0.01,0.32,0.13,0.33,0.31c0,0.01,0,0.01,0,0.02V9C8.67,9.09,8.64,9.18,8.57,9.24z M8.57,6.57  C8.51,6.63,8.42,6.66,8.33,6.66H7.67C7.49,6.67,7.35,6.53,7.34,6.35c0-0.01,0-0.01,0-0.02V5.67C7.33,5.49,7.47,5.35,7.65,5.34  c0.01,0,0.01,0,0.02,0h0.67c0.18-0.01,0.32,0.13,0.33,0.31c0,0.01,0,0.01,0,0.02v0.67c0,0.09-0.03,0.18-0.1,0.24V6.57z M13.91,19.9  c-0.06,0.06-0.15,0.09-0.24,0.09h-3.34C10.15,20,10.01,19.86,10,19.68c0-0.01,0-0.01,0-0.02v-2c-0.01-0.18,0.13-0.32,0.31-0.33  c0.01,0,0.01,0,0.02,0h3.33c0.18-0.01,0.32,0.13,0.33,0.31c0,0.01,0,0.01,0,0.02v2C14,19.75,13.97,19.83,13.91,19.9z M14,14.33  c0.01,0.18-0.13,0.32-0.31,0.33c-0.01,0-0.01,0-0.02,0H13c-0.18,0.01-0.32-0.13-0.33-0.31c0-0.01,0-0.01,0-0.02v-0.66  c-0.01-0.18,0.12-0.33,0.3-0.34c0.01,0,0.02,0,0.03,0h0.67c0.18-0.01,0.32,0.13,0.33,0.31c0,0.01,0,0.01,0,0.02V14.33L14,14.33z   M13.91,11.9c-0.06,0.06-0.15,0.09-0.24,0.09H13c-0.18,0.01-0.32-0.13-0.33-0.31c0-0.01,0-0.01,0-0.02V11  c-0.01-0.18,0.13-0.32,0.31-0.33c0.01,0,0.01,0,0.02,0h0.67c0.18-0.01,0.32,0.13,0.33,0.31c0,0.01,0,0.01,0,0.02v0.67  c0,0.09-0.03,0.18-0.09,0.24V11.9z M13.91,9.23c-0.06,0.06-0.15,0.09-0.24,0.09H13c-0.18,0.01-0.32-0.13-0.33-0.31  c0,0,0-0.01,0-0.01V8.34c-0.01-0.18,0.12-0.33,0.3-0.34c0.01,0,0.02,0,0.03,0h0.67c0.18-0.01,0.32,0.13,0.33,0.31  c0,0.01,0,0.01,0,0.02V9c0,0.09-0.03,0.18-0.09,0.24V9.23z M13.91,6.56c-0.06,0.06-0.15,0.09-0.24,0.09H13  c-0.18,0.01-0.32-0.13-0.33-0.31c0-0.01,0-0.01,0-0.02V5.67c-0.01-0.18,0.13-0.32,0.31-0.33c0.01,0,0.01,0,0.02,0h0.67  c0.18-0.01,0.32,0.13,0.33,0.31c0,0.01,0,0.01,0,0.02v0.67c0,0.09-0.03,0.18-0.09,0.24V6.56z M16.58,17.22  c-0.06,0.06-0.15,0.09-0.24,0.09h-0.68c-0.18,0.01-0.32-0.13-0.33-0.31c0,0,0,0,0,0v-0.67c-0.01-0.18,0.13-0.32,0.31-0.33  c0.01,0,0.01,0,0.02,0h0.67c0.18-0.01,0.32,0.13,0.33,0.31c0,0.01,0,0.01,0,0.02V17c0,0.09-0.03,0.18-0.09,0.24L16.58,17.22z   M16.67,14.32c0.01,0.18-0.13,0.32-0.31,0.33c-0.01,0-0.01,0-0.02,0h-0.68c-0.18,0.01-0.32-0.13-0.33-0.31c0-0.01,0-0.01,0-0.02  v-0.65c-0.01-0.18,0.13-0.32,0.31-0.33c0.01,0,0.01,0,0.02,0h0.67c0.18-0.01,0.32,0.13,0.33,0.31c0,0.01,0,0.01,0,0.02v0.67l0,0  L16.67,14.32z M16.58,11.89c-0.06,0.06-0.15,0.09-0.24,0.09h-0.68c-0.18,0.01-0.32-0.13-0.33-0.31c0-0.01,0-0.01,0-0.02V11  c-0.01-0.18,0.13-0.32,0.31-0.33c0.01,0,0.01,0,0.02,0h0.67c0.18-0.01,0.32,0.13,0.33,0.31c0,0.01,0,0.01,0,0.02v0.67  c0,0.09-0.03,0.18-0.09,0.24L16.58,11.89z M16.58,9.22c-0.06,0.06-0.15,0.09-0.24,0.09h-0.68C15.48,9.32,15.34,9.18,15.33,9  c0,0,0,0,0,0V8.34c-0.01-0.18,0.12-0.33,0.3-0.34c0.01,0,0.02,0,0.03,0h0.67c0.18-0.01,0.32,0.13,0.33,0.31c0,0.01,0,0.01,0,0.02V9  c0,0.09-0.03,0.18-0.09,0.24L16.58,9.22z M16.58,6.55c-0.06,0.06-0.15,0.09-0.24,0.09h-0.68c-0.18,0.01-0.32-0.13-0.33-0.31  c0-0.01,0-0.01,0-0.02V5.67c-0.01-0.18,0.13-0.32,0.31-0.33c0.01,0,0.01,0,0.02,0h0.67c0.18-0.01,0.32,0.13,0.33,0.31  c0,0.01,0,0.01,0,0.02v0.67c0,0.09-0.03,0.18-0.09,0.24L16.58,6.55z" style="fill: rgb(65, 143, 232);" vector-effect="non-scaling-stroke"/></g></svg>