<svg version="1.2" xmlns="http://www.w3.org/2000/svg" xmlns:xlink="http://www.w3.org/1999/xlink" overflow="visible" preserveAspectRatio="none" viewBox="0 0 24 24" width="21" height="21"><g><path xmlns:default="http://www.w3.org/2000/svg" id="graduation-cap" d="M12.5,13.26c-0.33,0.1-0.67,0.1-1,0l-6-1.88l-0.16,3.29c0.02,0.56,0.35,1.07,0.85,1.33  c0.75,0.48,1.58,0.82,2.45,1c1.1,0.25,2.23,0.37,3.36,0.36c1.13,0.01,2.26-0.11,3.36-0.36c0.87-0.18,1.7-0.52,2.45-1  c0.5-0.26,0.83-0.77,0.85-1.33l-0.19-3.29L12.5,13.26z M24,8c0.01-0.15-0.09-0.28-0.23-0.32L12.1,4h-0.2L0.24,7.68  C0.06,7.74-0.04,7.93,0.01,8.11C0.05,8.22,0.13,8.3,0.24,8.33L3.7,9.41c-0.65,1.03-1,2.22-1,3.44c-0.64,0.36-0.86,1.17-0.5,1.81  c0.1,0.18,0.25,0.34,0.43,0.46L2,19.62c-0.02,0.19,0.12,0.35,0.31,0.37c0.01,0,0.01,0,0.02,0h2c0.19,0,0.34-0.16,0.33-0.35  c0-0.01,0-0.01,0-0.02l-0.6-4.51c0.39-0.23,0.62-0.66,0.61-1.11c0.02-0.48-0.24-0.92-0.67-1.14C4.03,12.23,4.16,11.6,4.37,11  c0.14-0.45,0.39-0.85,0.74-1.16L11.9,12h0.2l11.66-3.68C23.91,8.29,24,8.15,24,8L24,8z" style="fill: rgb(65, 143, 232);" vector-effect="non-scaling-stroke"/></g></svg>